<svg xmlns="http://www.w3.org/2000/svg" height="24" viewBox="0 -960 960 960" width="24"><path d="M255.385-175.384q-23.659 0-46.791-8.154-23.133-8.154-40.902-22.616 19.846-13.077 33.769-35.115 13.923-22.039 13.923-54.116 0-33.846 23.077-56.923 23.077-23.077 56.924-23.077 33.846 0 56.923 23.077 23.077 23.077 23.077 56.923 0 49.501-35.25 84.751-35.25 35.25-84.75 35.25Zm0-40.001q33 0 56.5-23.5t23.5-56.5q0-17-11.5-28.5t-28.5-11.5q-17 0-28.5 11.5t-11.5 28.5q0 23-5.5 42t-14.5 36q5 2 10 2h10ZM450-380l-68.462-68.462 327.231-327.231q11-11 27.5-11.5t28.5 11.5l12.462 12.462q12 12 12 28t-12 28L450-380Zm-154.615 84.615Z"/></svg>