<svg xmlns="http://www.w3.org/2000/svg" height="24" viewBox="0 -960 960 960" width="24"><path d="M483.525-205.538q-115.387 0-195.206-79.748Q208.5-365.035 208.5-479.941t79.819-194.713q79.819-79.808 195.258-79.808 70.808 0 132.423 33.827 61.615 33.827 98.962 94.635v-128.462h36.923V-552H549.423v-36.923h144.923q-31.148-59.764-87.375-94.19-56.228-34.425-123.355-34.425-99.308 0-168.751 69.444-69.442 69.445-69.442 168.212t69.317 168.094q69.318 69.326 168.707 69.326 76.151 0 137.467-43.384 61.317-43.385 86.346-114.769h39.24Q720.654-313 647.873-259.269q-72.781 53.731-164.348 53.731Z"/></svg>