<svg xmlns="http://www.w3.org/2000/svg" height="24" viewBox="0 -960 960 960" width="24"><path d="M242.256-195.692q-18.987 0-32.775-13.675-13.789-13.675-13.789-32.877 0-18.795 13.675-32.583 13.675-13.789 32.877-13.789 18.795 0 32.583 13.687 13.789 13.687 13.789 32.673 0 18.987-13.687 32.775-13.687 13.789-32.673 13.789Zm237.863 0q-19.196 0-32.792-13.675t-13.596-32.877q0-18.795 13.589-32.583 13.59-13.789 32.674-13.789 19.083 0 32.872 13.687 13.788 13.687 13.788 32.673 0 18.987-13.67 32.775-13.669 13.789-32.865 13.789Zm237.829 0q-18.987 0-32.775-13.675-13.789-13.675-13.789-32.877 0-18.795 13.675-32.583 13.675-13.789 32.878-13.789 18.794 0 32.582 13.687 13.789 13.687 13.789 32.673 0 18.987-13.687 32.775-13.687 13.789-32.673 13.789ZM242.256-433.731q-18.987 0-32.775-13.589-13.789-13.59-13.789-32.674 0-19.083 13.675-32.872 13.675-13.788 32.877-13.788 18.795 0 32.583 13.67 13.789 13.669 13.789 32.865t-13.687 32.792q-13.687 13.596-32.673 13.596Zm237.863 0q-19.196 0-32.792-13.589-13.596-13.59-13.596-32.674 0-19.083 13.589-32.872 13.59-13.788 32.674-13.788 19.083 0 32.872 13.67 13.788 13.669 13.788 32.865t-13.67 32.792q-13.669 13.596-32.865 13.596Zm237.829 0q-18.987 0-32.775-13.589-13.789-13.59-13.789-32.674 0-19.083 13.675-32.872 13.675-13.788 32.878-13.788 18.794 0 32.582 13.67 13.789 13.669 13.789 32.865t-13.687 32.792q-13.687 13.596-32.673 13.596ZM242.256-671.384q-18.987 0-32.775-13.675-13.789-13.675-13.789-32.878 0-18.794 13.675-32.582 13.675-13.789 32.877-13.789 18.795 0 32.583 13.687 13.789 13.687 13.789 32.673 0 18.987-13.687 32.775-13.687 13.789-32.673 13.789Zm237.863 0q-19.196 0-32.792-13.675t-13.596-32.878q0-18.794 13.589-32.582 13.59-13.789 32.674-13.789 19.083 0 32.872 13.687 13.788 13.687 13.788 32.673 0 18.987-13.67 32.775-13.669 13.789-32.865 13.789Zm237.829 0q-18.987 0-32.775-13.675-13.789-13.675-13.789-32.878 0-18.794 13.675-32.582 13.675-13.789 32.878-13.789 18.794 0 32.582 13.687 13.789 13.687 13.789 32.673 0 18.987-13.687 32.775-13.687 13.789-32.673 13.789Z"/></svg>