<svg xmlns="http://www.w3.org/2000/svg" width="64" height="64" viewBox="0 0 64 64"><g fill="none" fill-rule="evenodd"><path fill="#202124" d="M44,38 L56.1,53.1 C61,47.4 64,40.1 64,32 C64,14.3 49.7,0 32,0 C14.3,0 0,14.3 0,32 C0,40.1 3,47.5 7.9,53.1 L20,38 L44,38"></path><path fill="#FEEFC3" d="M56.1,53.1 L44,38 L20,38 L7.9,53.1 C13.8,59.8 22.4,64 32,64 C41.6,64 50.2,59.8 56.1,53.1"></path><path fill="#FCC934" fill-rule="nonzero" d="M32 46C31.4 46 31 46.4 31 47L31 49C31 49.6 31.4 50 32 50L32 50C32.6 50 33 49.6 33 49L33 47C33 46.4 32.6 46 32 46M23.6 43.2C23.3 43.2 23 43.3 22.8 43.6L21.5 45.1C21.1 45.5 21.2 46.2 21.6 46.5 21.8 46.7 22 46.7 22.2 46.7 22.5 46.7 22.8 46.6 23 46.3L24.3 44.8C24.7 44.4 24.6 43.7 24.2 43.4 24.1 43.3 23.9 43.2 23.6 43.2M39.4 43.2C39.2 43.2 38.9 43.3 38.8 43.4 38.6 43.6 38.4 43.9 38.4 44.2L38.4 44.2C38.4 44.4 38.5 44.6 38.6 44.8L39.9 46.3C40.1 46.5 40.4 46.7 40.7 46.7 40.9 46.7 41.2 46.6 41.3 46.5 41.5 46.3 41.7 46 41.7 45.7L41.7 45.7C41.7 45.5 41.6 45.3 41.5 45.1L40.2 43.6C39.9 43.4 39.6 43.2 39.4 43.2"></path><path fill="#FBBC04" fill-rule="nonzero" d="M7 0C3.1 0 0 3.1 0 7L0 7C0 7.7.1 8.4.3 9L13.7 9C13.9 8.4 14 7.7 14 7 14 3.1 10.9 0 7 0M13.7 9L.3 9C1.2 11.9 3.8 14 7 14L7 14C10.2 14 12.8 11.9 13.7 9" transform="translate(25 29)"></path><polygon fill="#5F6368" points="33 15 40 15 34.8 20.8 52 38 12 38 29.2 20.8 24 15 31 15 31 0 33 0"></polygon></g></svg>