<svg xmlns="http://www.w3.org/2000/svg" height="24" viewBox="0 -960 960 960" width="24"><path d="M478.462-120q-73.539 0-138.847-28.423-65.307-28.423-114.038-77.154Q176.846-274.308 148.423-340 120-405.692 120-480q0-75.308 29.038-141 29.039-65.692 79.154-114.308 50.116-48.615 117.577-76.654Q413.231-840 489.538-840q70.001 0 133.308 23.654 63.308 23.653 111.423 65.615 48.116 41.962 76.924 100Q840-592.692 840-524.154q0 92.693-53.461 148.423Q733.077-320 640-320h-70.923q-25.154 0-42.115 17.308Q510-285.385 510-260.923q0 25.077 15 42.577 15 17.5 15 40.346 0 29.231-16.346 43.616Q507.308-120 478.462-120ZM480-480Zm-220 20q16.769 0 28.385-11.615Q300-483.231 300-500q0-16.769-11.615-28.385Q276.769-540 260-540q-16.769 0-28.385 11.615Q220-516.769 220-500q0 16.769 11.615 28.385Q243.231-460 260-460Zm120-160q16.769 0 28.385-11.615Q420-643.231 420-660q0-16.769-11.615-28.385Q396.769-700 380-700q-16.769 0-28.385 11.615Q340-676.769 340-660q0 16.769 11.615 28.385Q363.231-620 380-620Zm200 0q16.769 0 28.385-11.615Q620-643.231 620-660q0-16.769-11.615-28.385Q596.769-700 580-700q-16.769 0-28.385 11.615Q540-676.769 540-660q0 16.769 11.615 28.385Q563.231-620 580-620Zm120 160q16.769 0 28.385-11.615Q740-483.231 740-500q0-16.769-11.615-28.385Q716.769-540 700-540q-16.769 0-28.385 11.615Q660-516.769 660-500q0 16.769 11.615 28.385Q683.231-460 700-460ZM478.462-160q10.538 0 16.038-4.615Q500-169.231 500-178q0-14-15-29.923-15-15.923-15-52.385 0-43.538 29-71.615Q528-360 570-360h70q75.231 0 117.615-44.269Q800-448.538 800-524.154q0-121.769-93.654-198.808Q612.692-800 489.538-800q-138.307 0-233.923 93Q160-614 160-480q0 133 93.5 226.5T478.462-160Z"/></svg>