<svg xmlns="http://www.w3.org/2000/svg" height="24" viewBox="0 -960 960 960" width="24"><path d="M408.961-126.154 394.5-240q-12.769-3.192-35.712-15.634-22.942-12.443-45.942-29.558L208.5-241.038l-71.539-125.077 91-68.424q-2.154-10.705-3.115-21.718-.962-11.012-.962-22.974 0-9.461 1.212-20.884 1.211-11.423 2.981-26.577l-91.116-68.193L208.5-717.808l104.692 44q17.308-14.538 38.212-26.731 20.904-12.192 42.327-19.346l15.23-114.577h142.462l14.462 114.616q23.231 8.192 41.134 18.903 17.904 10.712 36.596 27.135l108.27-44 71.538 122.923-95.923 71.772q2.923 12.344 3.5 22.132.577 9.789.577 20.789 0 10.23-.769 20.377-.769 10.146-3.423 24.623l93.769 69.077-71.539 125.077-106-45.539Q625.654-271 607.289-259.884q-18.366 11.115-41.404 19.115l-14.462 114.615H408.961Zm68.663-256.923q40.568 0 68.722-28.185 28.154-28.185 28.154-68.769t-28.176-68.738q-28.176-28.154-68.747-28.154-40.731 0-68.827 28.185-28.096 28.185-28.096 68.769t28.096 68.738q28.096 28.154 68.874 28.154ZM477.577-420q-25 0-42.5-17.5t-17.5-42.5q0-25 17.5-42.5t42.5-17.5q24.615 0 42.308 17.5 17.692 17.5 17.692 42.5t-17.692 42.5Q502.192-420 477.577-420Zm2.308-60.5Zm-39.679 317.423h77.485l15.365-108.808q29.444-8 52.713-21.403 23.269-13.404 47.846-37.712l100.27 43.154 39.269-67.197L685-421q4.5-17.077 6.308-31.148 1.807-14.071 1.807-28.044 0-14.923-1.557-27.827Q690-520.923 685-537.462l89.692-67.923-38.654-67.384-103.307 43.384q-16.808-18.692-46.385-36.115-29.577-17.423-54.231-23l-12.214-109.038h-79.67l-11.962 108.18q-31.231 6.935-55.038 20.108-23.808 13.173-49.616 38.865l-99.269-42.384-39.654 67.384 86.654 64.27q-5 14.077-7 29.591-2 15.515-2 31.763 0 15.03 1.75 29.53 1.75 14.5 5.981 29.846l-85.385 65.154 39.563 67.385 98.476-42q24.269 24.269 48.942 38 24.673 13.731 55.655 21.231l12.878 107.538Z"/></svg>